<svg xmlns="http://www.w3.org/2000/svg" width="115" height="102" viewBox="0 0 115 102">
  <defs>
    <style>
      .cls-1 {
        fill: #f5aa35;
        fill-rule: evenodd;
      }
    </style>
  </defs>
  <path id="Forma_1" data-name="Forma 1" class="cls-1" d="M1344.47,797.25h-87.94c-7.44,0-13.53,5.818-13.53,12.75s6.09,12.75,13.53,12.75h87.94c7.44,0,13.53-5.819,13.53-12.75S1351.91,797.25,1344.47,797.25ZM1300.5,759c7.56,0,13.69,5.709,13.69,12.751s-6.13,12.749-13.69,12.749-13.69-5.708-13.69-12.749S1292.94,759,1300.5,759Zm0,76.5c7.56,0,13.69,5.708,13.69,12.749S1308.06,861,1300.5,861s-13.69-5.709-13.69-12.751S1292.94,835.5,1300.5,835.5Z" transform="translate(-1243 -759)"/>
</svg>
