<svg xmlns="http://www.w3.org/2000/svg" width="195" height="195" viewBox="0 0 195 195">
  <defs>
    <style>
      .cls-1 {
        fill: #e62a17;
        fill-rule: evenodd;
      }
    </style>
  </defs>
  <path class="cls-1" d="M876.5,549A97.5,97.5,0,1,1,974,451.5,97.5,97.5,0,0,1,876.5,549Zm0-176.719a79.22,79.22,0,1,0,79.217,79.22A79.218,79.218,0,0,0,876.5,372.28Zm33.516,121.875a9.119,9.119,0,0,1-6.464-2.676h0L876.5,464.426l-27.053,27.053h0a9.141,9.141,0,1,1-12.927-12.928h0L863.573,451.5,836.52,424.447h0a9.14,9.14,0,1,1,12.927-12.926h0L876.5,438.574l27.052-27.053h0a9.14,9.14,0,1,1,12.927,12.926h0L889.426,451.5l27.053,27.051h0A9.141,9.141,0,0,1,910.016,494.155Z" transform="translate(-779 -354)"/>
</svg>
