<svg xmlns="http://www.w3.org/2000/svg" width="150.031" height="166" viewBox="0 0 150.031 166">
  <defs>
    <style>
      .cls-1 {
        fill: #fba10c;
        fill-rule: evenodd;
      }
    </style>
  </defs>
  <path id="Forma_1" data-name="Forma 1" class="cls-1" d="M592.623,6222.05c0-4.46-3.168-7.13-8.758-7.13a19.331,19.331,0,0,0-4.636.43v14.35a17.24,17.24,0,0,0,3.75.29C588.943,6229.99,592.623,6227.03,592.623,6222.05Zm34.6-6.99a24.31,24.31,0,0,0-5.081.43v31.81a20.743,20.743,0,0,0,3.9.22c10.155,0.06,16.78-5.41,16.78-17.03C642.9,6220.39,636.862,6215.06,627.223,6215.06Zm66.3-18.69h-4.068v-19.23a2.583,2.583,0,0,0-.036-0.36,3.174,3.174,0,0,0-.788-2.11l-32.663-36.56a0.147,0.147,0,0,1-.026-0.02,3.288,3.288,0,0,0-.663-0.55q-0.105-.06-0.216-0.12a3.162,3.162,0,0,0-.655-0.27c-0.063-.02-0.118-0.04-0.179-0.06a3.231,3.231,0,0,0-.763-0.09H573.19a6.583,6.583,0,0,0-6.643,6.51v52.86h-4.068a9.4,9.4,0,0,0-9.5,9.31v48.38a9.4,9.4,0,0,0,9.5,9.31h4.068v33.12a6.583,6.583,0,0,0,6.643,6.51H682.809a6.586,6.586,0,0,0,6.644-6.51v-33.12h4.068a9.406,9.406,0,0,0,9.5-9.31v-48.38A9.406,9.406,0,0,0,693.521,6196.37ZM573.19,6143.51h76.953v33.3a3.293,3.293,0,0,0,3.321,3.26h29.345v16.31H573.19v-52.87Zm81.556,86.62c0,9.31-3.458,15.72-8.249,19.69-5.22,4.25-13.17,6.27-22.882,6.27a99.367,99.367,0,0,1-12.735-.72v-47.74a102.079,102.079,0,0,1,15.165-1.01c9.416,0,15.526,1.66,20.312,5.19C651.506,6215.56,654.746,6221.55,654.746,6230.13Zm-86.631,25.46v-47.96a94.475,94.475,0,0,1,15.162-1.01c6.917,0,11.85,1.3,15.161,3.9a14.091,14.091,0,0,1,5.294,11.25c0,4.76-1.614,8.8-4.561,11.54-3.827,3.53-9.493,5.12-16.119,5.12a29.4,29.4,0,0,1-3.824-.22v17.38H568.115Zm114.694,39.13H573.19v-31.35H682.809v31.35Zm9.627-78.72H673.37v11.1h17.812v8.95H673.37v19.54H662.114v-48.61h30.322V6216Z" transform="translate(-552.969 -6137)"/>
</svg>
