<svg xmlns="http://www.w3.org/2000/svg" width="93.97" height="108" viewBox="0 0 93.97 108"><defs><style>.cls-1{fill:#222;fill-rule:evenodd;opacity:.6}</style></defs><path class="cls-1" d="M46.56 58.186h.74c6.7-.113 12.12-2.413 16.12-6.822 8.81-9.7 7.34-26.345 7.18-27.934-.57-11.92-6.33-17.621-11.09-20.285A25.9 25.9 0 0 0 47.2-.01h-.39a25.951 25.951 0 0 0-12.3 3.066c-4.8 2.664-10.66 8.367-11.23 20.374-.16 1.589-1.62 18.229 7.18 27.934 3.98 4.409 9.4 6.709 16.1 6.822zM29.39 23.992c0-.072.02-.14.02-.183.75-16.033 12.4-17.756 17.38-17.756h.28c6.17.135 16.67 2.594 17.38 17.756a.51.51 0 0 0 .02.183c.03.152 1.63 15.36-5.65 23.368-2.88 3.175-6.72 4.744-11.78 4.787h-.23c-5.03-.043-8.89-1.613-11.75-4.787-7.25-7.96-5.7-23.236-5.67-23.368zm64.54 61.79v-.065c0-.181-.02-.357-.02-.562-.14-4.426-.44-14.782-10.36-18.094-.07-.022-.16-.038-.23-.063a66.57 66.57 0 0 1-18.98-8.454 3.141 3.141 0 0 0-4.31.738 2.979 2.979 0 0 0 .76 4.2 71.913 71.913 0 0 0 20.88 9.327c5.33 1.858 5.93 7.425 6.09 12.523a4.985 4.985 0 0 0 .02.559 39.578 39.578 0 0 1-.48 6.911c-3.71 2.059-18.23 9.17-40.32 9.17-22.01 0-36.62-7.133-40.35-9.191a36.878 36.878 0 0 1-.48-6.912c0-.176.02-.354.02-.559.16-5.1.76-10.664 6.08-12.523a72.918 72.918 0 0 0 20.89-9.327 2.968 2.968 0 0 0 .75-4.2 3.125 3.125 0 0 0-4.3-.738 65.927 65.927 0 0 1-18.98 8.454c-.09.022-.16.046-.23.063C.45 70.373.15 80.729.02 85.133a3.392 3.392 0 0 1-.03.562v.065c-.02 1.164-.04 7.136 1.17 10.132a2.89 2.89 0 0 0 1.19 1.41c.69.444 17.13 10.689 44.65 10.689s43.96-10.262 44.65-10.689a2.977 2.977 0 0 0 1.18-1.41c1.15-2.977 1.13-8.943 1.1-10.11z"/></svg>