<svg xmlns="http://www.w3.org/2000/svg" width="168.843" height="270.875" viewBox="0 0 168.843 270.875">
  <defs>
    <style>
      .cls-1 {
        fill: #fff;
        fill-rule: evenodd;
      }
    </style>
  </defs>
  <path id="Shape_9_copy_3" data-name="Shape 9 copy 3" class="cls-1" d="M422.02,573.146a26.567,26.567,0,0,1,4.608-3.526l109.2-104.983a28.067,28.067,0,0,1,38.592,0,25.534,25.534,0,0,1,0,37.11l-94.049,90.4,94.524,90.888a25.52,25.52,0,0,1,0,37.1,28.079,28.079,0,0,1-38.579-.007L426.628,614.689a26.458,26.458,0,0,1-4.608-3.532A26.681,26.681,0,0,1,422.02,573.146Z" transform="translate(-414.063 -456.938)"/>
</svg>
