<svg xmlns="http://www.w3.org/2000/svg" width="101.91" height="162.875" viewBox="0 0 101.91 162.875">
  <defs>
    <style>
      .cls-1 {
        fill: #aac94a;
        fill-rule: evenodd;
      }
    </style>
  </defs>
  <path id="Shape_9_copy_2" data-name="Shape 9 copy 2" class="cls-1" d="M1407.84,526.859a16.292,16.292,0,0,1,2.78-2.121l65.91-63.145a16.98,16.98,0,0,1,23.29,0,15.325,15.325,0,0,1,0,22.321l-56.76,54.376,57.05,54.667a15.321,15.321,0,0,1,0,22.317,17,17,0,0,1-23.29,0l-66.2-63.424a16.158,16.158,0,0,1-2.78-2.124A16.012,16.012,0,0,1,1407.84,526.859Z" transform="translate(-1403.03 -457)"/>
</svg>
