<svg xmlns="http://www.w3.org/2000/svg" width="26" height="26" viewBox="0 0 26 26">
  <defs>
    <style>
      .cls-1 {
        fill: #434343;
        fill-rule: evenodd;
      }
    </style>
  </defs>
  <path class="cls-1" d="M703.559,102.105a2.564,2.564,0,0,0-1.858-.851,2.651,2.651,0,0,0-1.879.846l-1.737,1.728c-0.143-.077-0.286-0.148-0.423-0.22-0.2-.1-0.385-0.192-0.544-0.29A18.868,18.868,0,0,1,692.6,99.2a11.144,11.144,0,0,1-1.484-2.338c0.451-.412.869-0.839,1.275-1.251,0.154-.154.308-0.313,0.462-0.467a2.515,2.515,0,0,0,0-3.8l-1.5-1.5c-0.171-.17-0.347-0.346-0.511-0.521-0.33-.34-0.676-0.692-1.034-1.021a2.6,2.6,0,0,0-1.841-.807,2.692,2.692,0,0,0-1.868.807l-0.011.011L684.214,90.2a4.012,4.012,0,0,0-1.192,2.551,9.62,9.62,0,0,0,.7,4.072,23.624,23.624,0,0,0,4.2,7,25.861,25.861,0,0,0,8.612,6.733,13.439,13.439,0,0,0,4.836,1.427c0.115,0,.236.011,0.346,0.011a4.144,4.144,0,0,0,3.171-1.361c0.006-.011.017-0.017,0.022-0.028a12.735,12.735,0,0,1,.962-0.993c0.236-.225.478-0.461,0.714-0.707a2.738,2.738,0,0,0,.83-1.9,2.636,2.636,0,0,0-.846-1.882Zm1.967,5.778s0,0.006,0,0c-0.214.231-.434,0.44-0.67,0.67a14.6,14.6,0,0,0-1.061,1.1,2.65,2.65,0,0,1-2.066.873c-0.083,0-.171,0-0.253-0.006a11.938,11.938,0,0,1-4.287-1.284,24.408,24.408,0,0,1-8.111-6.343,22.289,22.289,0,0,1-3.957-6.579,7.817,7.817,0,0,1-.615-3.435,2.517,2.517,0,0,1,.758-1.63l1.874-1.871a1.246,1.246,0,0,1,.835-0.39,1.176,1.176,0,0,1,.8.384l0.016,0.017c0.335,0.313.654,0.636,0.989,0.982,0.171,0.176.347,0.351,0.522,0.532l1.5,1.5a1.047,1.047,0,0,1,0,1.7c-0.16.158-.314,0.318-0.473,0.472-0.461.472-.9,0.911-1.379,1.339a0.159,0.159,0,0,0-.028.027,1.121,1.121,0,0,0-.286,1.246c0.006,0.017.012,0.033,0.017,0.049a12.022,12.022,0,0,0,1.775,2.892l0.006,0.005a20.169,20.169,0,0,0,4.88,4.435,7.665,7.665,0,0,0,.676.367c0.2,0.1.384,0.192,0.544,0.291,0.022,0.011.044,0.027,0.066,0.038a1.121,1.121,0,0,0,1.379-.241l1.879-1.876a1.244,1.244,0,0,1,.83-0.412,1.124,1.124,0,0,1,.792.4l0.011,0.012,3.028,3.023A1.083,1.083,0,0,1,705.526,107.883Zm-8.474-15.7a7.066,7.066,0,0,1,5.759,5.751,0.737,0.737,0,0,0,.731.614,0.907,0.907,0,0,0,.127-0.011,0.742,0.742,0,0,0,.61-0.856,8.547,8.547,0,0,0-6.969-6.958,0.746,0.746,0,0,0-.857.6A0.733,0.733,0,0,0,697.052,92.184Zm11.936,5.284a14.069,14.069,0,0,0-11.474-11.458,0.74,0.74,0,1,0-.242,1.459,12.571,12.571,0,0,1,10.255,10.24,0.736,0.736,0,0,0,.73.614,1.07,1.07,0,0,0,.127-0.011A0.727,0.727,0,0,0,708.988,97.468Z" transform="translate(-683 -86)"/>
</svg>
