<svg xmlns="http://www.w3.org/2000/svg" width="162" height="162" viewBox="0 0 162 162">
  <defs>
    <style>
      .cls-1 {
        fill-rule: evenodd;
      }
    </style>
  </defs>
  <path id="Forma_1" data-name="Forma 1" class="cls-1" d="M1271,85.993a81,81,0,1,0,81,81A81.1,81.1,0,0,0,1271,85.993Zm0,156.6a75.6,75.6,0,1,1,75.6-75.6A75.686,75.686,0,0,1,1271,242.6Zm2.7-86.344V128.866a2.7,2.7,0,1,0-5.4,0v27.385a10.8,10.8,0,0,0-7.72,7.714H1241.3a2.7,2.7,0,0,0,0,5.4h19.28A10.779,10.779,0,1,0,1273.7,156.251Zm-2.7,15.814a5.4,5.4,0,1,1,5.4-5.4A5.4,5.4,0,0,1,1271,172.065Zm0-59.4a2.7,2.7,0,0,0,2.7-2.7v-2.7a2.7,2.7,0,1,0-5.4,0v2.7A2.7,2.7,0,0,0,1271,112.666Zm0,108a2.7,2.7,0,0,0-2.7,2.7v2.7a2.7,2.7,0,0,0,5.4,0v-2.7A2.7,2.7,0,0,0,1271,220.666Zm59.4-56.7h-2.7a2.7,2.7,0,0,0,0,5.4h2.7A2.7,2.7,0,0,0,1330.4,163.965Zm-116.1,0h-2.7a2.7,2.7,0,0,0,0,5.4h2.7A2.7,2.7,0,0,0,1214.3,163.965Zm96.79-41.211-1.91,1.908a2.7,2.7,0,1,0,3.82,3.819l1.91-1.913A2.7,2.7,0,0,0,1311.09,122.754Zm-82.09,82.1-1.91,1.906a2.7,2.7,0,0,0,3.82,3.82l1.91-1.91A2.7,2.7,0,0,0,1229,204.852Zm84,0a2.7,2.7,0,0,0-3.82,3.816l1.91,1.91a2.7,2.7,0,1,0,3.82-3.82Zm-82.09-82.1a2.7,2.7,0,0,0-3.82,3.814l1.91,1.913a2.7,2.7,0,0,0,3.82-3.819Z" transform="translate(-1190 -86)"/>
</svg>
