<svg xmlns="http://www.w3.org/2000/svg" width="12" height="12" viewBox="0 0 12 12">
  <defs>
    <style>
      .cls-1 {
        fill: #adadad;
        fill-rule: evenodd;
      }
    </style>
  </defs>
  <path class="cls-1" d="M694.232,348H683.768a0.776,0.776,0,0,1-.768-0.782v-9.447a0.776,0.776,0,0,1,.768-0.782h1.308v1.327a0.865,0.865,0,0,0,.856.872H686.1a0.865,0.865,0,0,0,.856-0.872v-1.327h4.175V338.3a0.865,0.865,0,0,0,.857.872h0.171a0.766,0.766,0,0,0,.857-0.746v-1.441h1.212a0.776,0.776,0,0,1,.768.782v9.447A0.776,0.776,0,0,1,694.232,348Zm0-7.916H683.768v7.134h10.464v-7.134Zm-1.206,6.373h-1.379a0.1,0.1,0,0,1-.1-0.1v-1.215a0.1,0.1,0,0,1,.1-0.1h1.379a0.1,0.1,0,0,1,.1.1v1.215A0.1,0.1,0,0,1,693.026,346.457Zm0-1.99h-1.379a0.1,0.1,0,0,1-.1-0.1v-1.215a0.1,0.1,0,0,1,.1-0.1h1.379a0.1,0.1,0,0,1,.1.1v1.215A0.1,0.1,0,0,1,693.026,344.467Zm0-1.99h-1.379a0.1,0.1,0,0,1-.1-0.1v-1.215a0.1,0.1,0,0,1,.1-0.1h1.379a0.1,0.1,0,0,1,.1.1v1.215A0.1,0.1,0,0,1,693.026,342.477Zm-2.251,3.98H689.4a0.1,0.1,0,0,1-.1-0.1v-1.215a0.1,0.1,0,0,1,.1-0.1h1.379a0.1,0.1,0,0,1,.1.1v1.215A0.1,0.1,0,0,1,690.775,346.457Zm0-1.99H689.4a0.1,0.1,0,0,1-.1-0.1v-1.215a0.1,0.1,0,0,1,.1-0.1h1.379a0.1,0.1,0,0,1,.1.1v1.215A0.1,0.1,0,0,1,690.775,344.467Zm0-1.99H689.4a0.1,0.1,0,0,1-.1-0.1v-1.215a0.1,0.1,0,0,1,.1-0.1h1.379a0.1,0.1,0,0,1,.1.1v1.215A0.1,0.1,0,0,1,690.775,342.477Zm-2.25,3.98h-1.379a0.1,0.1,0,0,1-.1-0.1v-1.215a0.1,0.1,0,0,1,.1-0.1h1.379a0.1,0.1,0,0,1,.1.1v1.215A0.1,0.1,0,0,1,688.525,346.457Zm0-1.99h-1.379a0.1,0.1,0,0,1-.1-0.1v-1.215a0.1,0.1,0,0,1,.1-0.1h1.379a0.1,0.1,0,0,1,.1.1v1.215A0.1,0.1,0,0,1,688.525,344.467Zm-2.25,1.99H684.9a0.1,0.1,0,0,1-.1-0.1v-1.215a0.1,0.1,0,0,1,.1-0.1h1.379a0.1,0.1,0,0,1,.1.1v1.215A0.1,0.1,0,0,1,686.275,346.457Zm0-1.99H684.9a0.1,0.1,0,0,1-.1-0.1v-1.215a0.1,0.1,0,0,1,.1-0.1h1.379a0.1,0.1,0,0,1,.1.1v1.215A0.1,0.1,0,0,1,686.275,344.467Zm5.888-5.682h-0.171a0.477,0.477,0,0,1-.473-0.481v-1.823a0.477,0.477,0,0,1,.473-0.481h0.171a0.477,0.477,0,0,1,.473.481V338.3A0.477,0.477,0,0,1,692.163,338.785Zm-6.059.012h-0.172a0.476,0.476,0,0,1-.472-0.481v-1.823a0.476,0.476,0,0,1,.472-0.481H686.1a0.476,0.476,0,0,1,.472.481v1.823A0.476,0.476,0,0,1,686.1,338.8Z" transform="translate(-683 -336)"/>
</svg>
