<svg xmlns="http://www.w3.org/2000/svg" width="160.78" height="129.906" viewBox="0 0 160.78 129.906">
  <defs>
    <style>
      .cls-1 {
        fill: #fff;
        fill-rule: evenodd;
      }
    </style>
  </defs>
  <path id="Forma_1_copy_10" data-name="Forma 1 copy 10" class="cls-1" d="M1392.07,452.581h17.05l24.29,78.2a5.9,5.9,0,0,0,5.75,3.885h74.66a6.022,6.022,0,0,0,5.45-3.178l27.17-55.6a4.874,4.874,0,0,0-.5-5.035,6.13,6.13,0,0,0-4.96-2.379H1458.5c-3.28,0-5.95,2.379-5.95,5.292s2.67,5.3,5.95,5.3h73.36l-22.01,45.011h-66.23l-24.28-78.2a5.9,5.9,0,0,0-5.76-3.883h-21.51c-3.27,0-5.95,2.382-5.95,5.3S1388.8,452.581,1392.07,452.581Zm41.44,119.324c7.44,0,13.48-5.382,13.48-12s-6.04-12-13.48-12-13.48,5.385-13.48,12S1426.08,571.905,1433.51,571.905Zm84.27,0h0.99a14.109,14.109,0,0,0,9.23-4.147,11.154,11.154,0,0,0,3.27-8.738c-0.5-6.531-6.94-11.561-14.38-11.12s-12.99,6.266-12.49,12.8C1504.9,566.965,1510.75,571.905,1517.78,571.905Z" transform="translate(-1386.13 -442)"/>
</svg>
