<svg xmlns="http://www.w3.org/2000/svg" width="214" height="191" viewBox="0 0 214 191">
  <defs>
    <style>
      .cls-1 {
        fill-rule: evenodd;
      }
    </style>
  </defs>
  <path id="Forma_1" data-name="Forma 1" class="cls-1" d="M1492.92,94.56h22.69l32.33,114.965a7.893,7.893,0,0,0,7.65,5.71h99.36a7.945,7.945,0,0,0,7.26-4.669l36.15-81.75a7.754,7.754,0,0,0-.66-7.394,7.888,7.888,0,0,0-6.6-3.5H1581.32a7.784,7.784,0,1,0,0,15.566h97.64l-29.29,66.178h-88.14L1529.2,84.7a7.9,7.9,0,0,0-7.65-5.708h-28.63A7.786,7.786,0,1,0,1492.92,94.56Zm55.15,175.433a17.651,17.651,0,1,0-17.94-17.651A17.821,17.821,0,0,0,1548.07,269.993Zm112.16,0h1.32a18.034,18.034,0,0,0,12.27-6.1,17.416,17.416,0,0,0,4.35-12.846A17.924,17.924,0,1,0,1660.23,269.993Z" transform="translate(-1485 -79)"/>
</svg>
