<svg xmlns="http://www.w3.org/2000/svg" width="43" height="34" viewBox="0 0 43 34">
  <defs>
    <style>
      .cls-1 {
        fill: #fff;
        fill-rule: evenodd;
      }
    </style>
  </defs>
  <path id="Shape_574_copy" data-name="Shape 574 copy" class="cls-1" d="M417.781,559.914L395.588,584.64h0a3.865,3.865,0,0,1-5.885,0h0l-12.484-13.908h0A4.9,4.9,0,0,1,376,567.453a4.417,4.417,0,0,1,4.161-4.636,3.945,3.945,0,0,1,2.943,1.358h0l9.541,10.631L411.9,553.357h0A3.947,3.947,0,0,1,414.838,552,4.419,4.419,0,0,1,419,556.636a4.9,4.9,0,0,1-1.219,3.278h0ZM417.613,552h0v0Z" transform="translate(-376 -552)"/>
</svg>
