<svg xmlns="http://www.w3.org/2000/svg" width="92.1" height="90" viewBox="0 0 92.1 90">
  <defs>
    <style>
      .cls-1 {
        fill: #222222;
        fill-rule: evenodd;
        opacity: 0.58;
      }
    </style>
  </defs>
  <path id="Forma_1" data-name="Forma 1" class="cls-1" d="M1377.22,101.992a2.911,2.911,0,0,1-2.01-.8l-0.72-.687-6.54.187a4.4,4.4,0,0,1-4.56-4.251l-0.1-3.427-3.32.094-0.13,0a4.383,4.383,0,0,1-4.43-4.255l-0.1-3.423-3.32.094c-0.05,0-.09,0-0.13,0a4.383,4.383,0,0,1-4.43-4.253l-0.2-6.842c-0.6-.6-1.65-1.575-2.79-2.6a7.567,7.567,0,0,1-8.92-1.1c-0.06-.058-0.11-0.115-0.16-0.173-0.14-.157-0.29-0.334-0.45-0.512a31.138,31.138,0,0,1-3.41.191,29.757,29.757,0,0,1-20.99-8.536,28.768,28.768,0,0,1,0-41.181,30.084,30.084,0,0,1,41.99,0,28.707,28.707,0,0,1,8.27,25.418,7.474,7.474,0,0,1,.5,7.3l31.6,31.066a2.806,2.806,0,0,1,.83,1.906l0.23,7.8a7.532,7.532,0,0,1-7.32,7.7l-9.31.261h-0.08Zm-1.6-7.139a2.93,2.93,0,0,1,2.01.789l0.72,0.689,8.09-.225a1.835,1.835,0,0,0,1.73-1.922l-0.19-6.689-32.07-31.53a2.783,2.783,0,0,1-.8-1.567l-0.11-.723a2.793,2.793,0,0,1,.72-2.32,1.932,1.932,0,0,0-.06-2.68,2.788,2.788,0,0,1-.78-2.583,23.146,23.146,0,0,0-6.47-21.593,24.226,24.226,0,0,0-33.82,0,23.223,23.223,0,0,0,0,33.244,23.991,23.991,0,0,0,16.91,6.878,24.608,24.608,0,0,0,4.56-.428,2.906,2.906,0,0,1,3.1,1.448,1.6,1.6,0,0,0,1.49,1.386,1.48,1.48,0,0,0,1.32-.376l0.38-.416a2.93,2.93,0,0,1,4.08-.231c0.06,0.05,1.43,1.251,2.83,2.525,3.06,2.8,3.66,3.463,3.7,4.789l0.19,6.551,4.88-.139a2.912,2.912,0,0,1,2.06.765,2.806,2.806,0,0,1,.9,1.969l0.14,4.988,4.87-.141a2.873,2.873,0,0,1,2.06.767,2.813,2.813,0,0,1,.91,1.967l0.14,4.986,6.43-.179h0.08Zm-49.35-48.985a10.1,10.1,0,0,1-7.13-2.9,9.752,9.752,0,0,1,0-13.971,10.213,10.213,0,0,1,14.26,0,9.749,9.749,0,0,1,0,13.969A10.1,10.1,0,0,1,1326.27,45.868Zm0-14.142a4.31,4.31,0,0,0-3.05,1.245,4.2,4.2,0,0,0,0,6.03,4.37,4.37,0,0,0,6.1,0,4.2,4.2,0,0,0,0-6.028A4.31,4.31,0,0,0,1326.27,31.726Zm53.76,59.847a2.893,2.893,0,0,1-2.04-.826l-25.53-25.066a2.768,2.768,0,0,1,.01-3.979,2.928,2.928,0,0,1,4.07.01l25.53,25.064a2.768,2.768,0,0,1-.01,3.98A2.888,2.888,0,0,1,1380.03,91.573Z" transform="translate(-1301.84 -12)"/>
</svg>
