<svg xmlns="http://www.w3.org/2000/svg" width="250" height="256" viewBox="0 0 250 256">
  <defs>
    <style>
      .cls-1 {
        fill-rule: evenodd;
      }
    </style>
  </defs>
  <path class="cls-1" d="M633.493,951.033c5.27-6.691,7.8-13.867,7.475-21.252a32.553,32.553,0,0,0-6.992-18.417c3.5-8.672,4.841-22.324-6.829-32.925-8.551-7.763-23.072-11.243-43.185-10.277a169.44,169.44,0,0,0-26.46,3.371h-0.054c-2.689.481-5.539,1.073-8.443,1.714-0.215-3.424.376-11.935,6.722-31.1,7.529-22.8,7.1-40.259-1.4-51.93-8.928-12.258-23.179-13.22-27.374-13.22a13.538,13.538,0,0,0-10.38,4.709c-5.969,6.906-5.27,19.648-4.517,25.535-7.1,18.954-27,65.422-43.83,78.322a5.719,5.719,0,0,0-.861.75,57.5,57.5,0,0,0-10.541,15.736,22.282,22.282,0,0,0-10.648-2.673H413.372A22.338,22.338,0,0,0,391,921.641v87a22.34,22.34,0,0,0,22.372,22.27h32.806a22.4,22.4,0,0,0,12.907-4.07l12.638,1.49a542.507,542.507,0,0,0,71.689,3.91c6.4,0.49,12.422.75,18.016,0.75a121.133,121.133,0,0,0,25.008-2.25c16.456-3.47,27.7-10.44,33.4-20.66a32.637,32.637,0,0,0,3.657-20.506c10.7-9.633,12.584-20.287,12.207-27.781A36.011,36.011,0,0,0,633.493,951.033ZM413.372,1016.45a7.839,7.839,0,0,1-7.851-7.81V921.588a7.843,7.843,0,0,1,7.851-7.815h32.806a7.844,7.844,0,0,1,7.852,7.815v86.992a7.845,7.845,0,0,1-7.852,7.82H413.372v0.05Zm206.353-71.683a7.173,7.173,0,0,0-.968,8.728,22.2,22.2,0,0,1,2.474,8.942c0.376,7.011-3.012,13.22-10.111,18.521a7.269,7.269,0,0,0-2.473,8.242c0,0.054,2.312,7.123-1.453,13.81-3.6,6.43-11.616,11.03-23.77,13.6-9.735,2.09-22.964,2.46-39.206,1.18h-0.753c-34.58.75-69.537-3.75-69.913-3.8H473.5l-5.432-.64a22.6,22.6,0,0,0,.484-4.71V921.588a22.588,22.588,0,0,0-1.021-6.637,44.679,44.679,0,0,1,10-18.364c24.147-19.056,47.757-83.353,48.778-86.136a6.73,6.73,0,0,0,.323-3.585c-0.914-6-.591-13.332.7-15.525,2.851,0.056,10.541.857,15.167,7.225,5.485,7.55,5.27,21.042-.646,38.92-9.035,27.25-9.788,41.6-2.635,47.911a11.743,11.743,0,0,0,11.724,2.086c3.28-.746,6.4-1.389,9.357-1.868,0.215-.055.485-0.109,0.7-0.162,16.511-3.587,46.09-5.782,56.362,3.533,8.712,7.924,2.527,18.417,1.828,19.539a7.138,7.138,0,0,0,1.291,9.316c0.054,0.056,5.7,5.352,5.969,12.472C626.662,935.08,624.4,939.952,619.725,944.767Z" transform="translate(-391 -777)"/>
</svg>
