<svg xmlns="http://www.w3.org/2000/svg" width="167" height="167" viewBox="0 0 167 167">
  <defs>
    <style>
      .cls-1 {
        fill: #fff;
        fill-rule: evenodd;
      }
    </style>
  </defs>
  <path class="cls-1" d="M880.5,4929a83.5,83.5,0,1,1,83.5-83.5A83.5,83.5,0,0,1,880.5,4929Zm0-151.35a67.845,67.845,0,1,0,67.843,67.85A67.849,67.849,0,0,0,880.5,4777.65Zm33.922,75.68H888.328v26.09a7.828,7.828,0,1,1-15.656,0v-26.09H846.578a7.83,7.83,0,0,1,0-15.66h26.094v-26.09a7.828,7.828,0,1,1,15.656,0v26.09h26.094A7.83,7.83,0,0,1,914.422,4853.33Z" transform="translate(-797 -4762)"/>
</svg>
