<svg xmlns="http://www.w3.org/2000/svg" width="173" height="235.97" viewBox="0 0 173 235.97">
  <defs>
    <style>
      .cls-1 {
        fill: #fba10c;
        fill-rule: evenodd;
      }
    </style>
  </defs>
  <path class="cls-1" d="M489.5,1467.99c-47.694,0-86.5,38.98-86.5,86.88a85.046,85.046,0,0,0,7.564,35.46c21.627,47.53,63.09,97.71,75.286,111.95a4.783,4.783,0,0,0,7.3,0c12.192-14.23,53.655-64.41,75.287-111.95A85.045,85.045,0,0,0,576,1554.87C575.991,1506.97,537.19,1467.99,489.5,1467.99Zm0,132.01a45.13,45.13,0,1,1,44.931-45.13A45.086,45.086,0,0,1,489.5,1600Z" transform="translate(-403 -1468)"/>
</svg>
