<svg xmlns="http://www.w3.org/2000/svg" viewBox="0 0 24 24">
  <defs>
    <style>
      .cls-1 {
        fill-rule: evenodd;
      }
    </style>
  </defs>
  <path class="cls-1" d="M1501,460a12,12,0,1,1,12-12A12,12,0,0,1,1501,460Zm0-21.75a9.75,9.75,0,1,0,9.75,9.75A9.753,9.753,0,0,0,1501,438.25Zm4.12,15a1.1,1.1,0,0,1-.79-0.33h0l-3.33-3.329-3.33,3.329h0a1.108,1.108,0,0,1-.8.33,1.122,1.122,0,0,1-1.12-1.125,1.138,1.138,0,0,1,.33-0.8h0l3.33-3.329-3.33-3.329h0a1.138,1.138,0,0,1-.33-0.8,1.125,1.125,0,0,1,1.92-.8h0l3.33,3.33,3.33-3.33h0a1.105,1.105,0,0,1,.79-0.329,1.124,1.124,0,0,1,1.13,1.125,1.138,1.138,0,0,1-.33.8h0L1502.59,448l3.33,3.329h0a1.138,1.138,0,0,1,.33.8A1.124,1.124,0,0,1,1505.12,453.25Z" transform="translate(-1489 -436)"/>
</svg>
