<svg xmlns="http://www.w3.org/2000/svg" width="220" height="216" viewBox="0 0 220 216">
  <defs>
    <style>
      .cls-1 {
        fill-rule: evenodd;
      }
    </style>
  </defs>
  <path id="Forma_1" data-name="Forma 1" class="cls-1" d="M998.333,518.7V324.661c0-.059-0.022-0.114-0.026-0.172a3.279,3.279,0,0,0-.081-0.535,3.709,3.709,0,0,0-.131-0.531c-0.019-.055-0.019-0.113-0.041-0.165a2.883,2.883,0,0,0-.18-0.3,3.744,3.744,0,0,0-.285-0.476,3.655,3.655,0,0,0-.352-0.392,3.765,3.765,0,0,0-.393-0.352,3.468,3.468,0,0,0-.477-0.284,3.254,3.254,0,0,0-.3-0.18c-0.055-.022-0.113-0.022-0.168-0.04a3.34,3.34,0,0,0-.521-0.132,4.287,4.287,0,0,0-.557-0.085c-0.051,0-.1-0.021-0.158-0.021H855.333c-0.055,0-.106.021-0.161,0.025a3.36,3.36,0,0,0-.562.084,3.927,3.927,0,0,0-.513.129c-0.055.018-.113,0.018-0.168,0.04a2.637,2.637,0,0,0-.3.18,2.8,2.8,0,0,0-.87.636,3.655,3.655,0,0,0-.352.392,3.993,3.993,0,0,0-.285.476c-0.056.1-.133,0.187-0.18,0.3-0.022.055-.022,0.114-0.04,0.165a3.493,3.493,0,0,0-.132.531,3.279,3.279,0,0,0-.081.535c0,0.058-.026.113-0.026,0.172V518.7H815V537h220V518.7H998.333ZM985.815,328.322l-3.667,3.661h-114.3l-3.667-3.661H985.815Zm-163.482,197.7h29.333v3.66H822.333v-3.66Zm40.333,3.66H859V333.5l3.667,3.662V529.677ZM870,339.3H980V529.677H870V339.3ZM991,529.677h-3.667V337.16L991,333.5V529.677Zm36.67,0H998.333v-3.66h29.337v3.66Zm-63.961-109.83h-7.748A8.961,8.961,0,0,0,947,428.791v2.039h-5.5a9.153,9.153,0,1,0,0,18.305H947v2.039a8.958,8.958,0,0,0,8.957,8.944h7.748a8.961,8.961,0,0,0,8.958-8.944V428.8A8.957,8.957,0,0,0,963.709,419.847ZM941.5,441.813a1.831,1.831,0,1,1,0-3.661h12.834v3.661H941.5Zm23.834,9.361a1.626,1.626,0,0,1-1.624,1.622h-7.748a1.627,1.627,0,0,1-1.628-1.622v-2.039h7.333V430.83h-7.333v-2.039a1.627,1.627,0,0,1,1.624-1.622h7.748a1.624,1.624,0,0,1,1.624,1.622v22.383h0Z" transform="translate(-815 -321)"/>
</svg>
