<svg xmlns="http://www.w3.org/2000/svg" width="118.062" height="107" viewBox="0 0 118.062 107">
  <defs>
    <style>
      .cls-1 {
        fill-rule: evenodd;
      }
    </style>
  </defs>
  <path class="cls-1" d="M481.466,232.216H493.1V256.7l-11.583-10.052ZM494.2,273.8L448.97,232.314l-48.24,41.741c-8.071,6.979-11.775,0-11.775,0l60.015-54.063L507.044,273.8S503.54,280.692,494.2,273.8Zm-4.529,3.735v45.994s0.15,3.36-3.124,3.36H457.408l0.051-24.868s0.286-4.112-4.328-4.112h-12.35c-3.907,0-3.483,4.112-3.483,4.112l-0.048,24.947S410.7,327,407.486,327c-2.578,0-2.475-2.7-2.475-2.7v-46.77l43.6-37.36Z" transform="translate(-388.969 -220)"/>
</svg>
