<svg xmlns="http://www.w3.org/2000/svg" width="176" height="233" viewBox="0 0 176 233">
  <defs>
    <style>
      .cls-1 {
  
        fill-rule: evenodd;
      }
    </style>
  </defs>
  <path class="cls-1" d="M1307.91,1007.99h-99.82A37.969,37.969,0,0,1,1170,970.254V889.13a12.665,12.665,0,0,1,12.71-12.6h133.96V846.175c0-32.09-26.35-58.154-58.69-58.154-32.4,0-58.7,26.111-58.7,58.154a6.58,6.58,0,0,1-13.16,0c0-39.28,32.25-71.183,71.86-71.183,39.65,0,71.85,31.953,71.85,71.183v30.357h3.46a12.665,12.665,0,0,1,12.71,12.6v81.124A37.969,37.969,0,0,1,1307.91,1007.99Zm24.94-118.427H1183.2v80.691a24.847,24.847,0,0,0,24.94,24.712h99.77a24.848,24.848,0,0,0,24.94-24.712V889.563ZM1258.02,967.6a24.371,24.371,0,1,1,24.6-24.373A24.512,24.512,0,0,1,1258.02,967.6Zm0-35.758a11.365,11.365,0,1,0,11.45,11.34A11.447,11.447,0,0,0,1258.02,931.841Z" transform="translate(-1170 -775)"/>
</svg>
