<svg xmlns="http://www.w3.org/2000/svg" width="62" height="92.031" viewBox="0 0 62 92.031">
  <defs>
    <style>
      .cls-1 {
  
        fill-rule: evenodd;
      }
    </style>
  </defs>
  <path id="Shape_528_copy" data-name="Shape 528 copy" class="cls-1" d="M1525.09,296.451a9.627,9.627,0,0,0-1.7-1.2l-40.11-35.665a10.909,10.909,0,0,0-14.17,0,8.229,8.229,0,0,0,0,12.608l34.54,30.713-34.72,30.883a8.222,8.222,0,0,0,0,12.6,10.915,10.915,0,0,0,14.17,0l40.29-35.828a9.973,9.973,0,0,0,1.7-1.2A8.6,8.6,0,0,0,1525.09,296.451Z" transform="translate(-1466 -256.969)"/>
</svg>
