<svg xmlns="http://www.w3.org/2000/svg" width="85.031" height="85" viewBox="0 0 85.031 85">
  <defs>
    <style>
      .cls-1 {

        fill-rule: evenodd;
      }
    </style>
  </defs>
  <path class="cls-1" d="M750.211,138.65a8.378,8.378,0,0,0-6.072-2.78,8.67,8.67,0,0,0-6.145,2.764l-5.677,5.649c-0.467-.25-0.934-0.482-1.383-0.717-0.647-.324-1.258-0.628-1.779-0.95a61.667,61.667,0,0,1-14.786-13.454,36.353,36.353,0,0,1-4.851-7.644c1.473-1.346,2.838-2.744,4.168-4.089,0.5-.5,1.006-1.023,1.509-1.526,3.773-3.767,3.773-8.647,0-12.413l-4.905-4.9c-0.557-.557-1.131-1.13-1.67-1.7-1.078-1.112-2.21-2.261-3.378-3.337a8.509,8.509,0,0,0-6.019-2.639,8.8,8.8,0,0,0-6.108,2.639l-0.036.036-6.109,6.154a13.11,13.11,0,0,0-3.9,8.34c-0.431,5.238,1.114,10.118,2.3,13.313,2.911,7.84,7.258,15.1,13.744,22.889A84.528,84.528,0,0,0,727.269,166.3c4.132,1.956,9.647,4.271,15.81,4.665,0.377,0.017.772,0.036,1.132,0.036a13.548,13.548,0,0,0,10.366-4.45c0.018-.036.054-0.054,0.072-0.09a41.053,41.053,0,0,1,3.144-3.246c0.773-.736,1.563-1.508,2.336-2.314a8.949,8.949,0,0,0,2.713-6.207,8.617,8.617,0,0,0-2.767-6.153Zm6.432,18.891c-0.018,0-.018.019,0,0-0.7.753-1.419,1.437-2.192,2.189a47.626,47.626,0,0,0-3.467,3.588,8.667,8.667,0,0,1-6.756,2.852c-0.269,0-.556,0-0.826-0.017-5.336-.341-10.3-2.423-14.014-4.2a79.785,79.785,0,0,1-26.518-20.738c-6.126-7.374-10.223-14.191-12.935-21.509-1.671-4.468-2.282-7.948-2.013-11.23a8.229,8.229,0,0,1,2.48-5.328l6.126-6.118a4.079,4.079,0,0,1,2.731-1.274,3.843,3.843,0,0,1,2.623,1.255c0.018,0.019.036,0.035,0.054,0.055,1.1,1.022,2.138,2.08,3.234,3.21,0.557,0.574,1.132,1.149,1.707,1.741l4.905,4.9c1.9,1.9,1.9,3.659,0,5.562-0.521.518-1.025,1.041-1.545,1.542-1.51,1.542-2.947,2.977-4.51,4.377a0.446,0.446,0,0,0-.09.089,3.655,3.655,0,0,0-.934,4.073l0.054,0.161a39.3,39.3,0,0,0,5.8,9.456l0.018,0.016a65.915,65.915,0,0,0,15.954,14.5,24.2,24.2,0,0,0,2.21,1.2c0.646,0.324,1.257.629,1.778,0.953,0.072,0.035.144,0.088,0.216,0.123a3.671,3.671,0,0,0,4.51-.788l6.144-6.134A4.067,4.067,0,0,1,744.1,140.7a3.667,3.667,0,0,1,2.587,1.309l0.036,0.037,9.9,9.883C758.476,153.756,758.476,155.641,756.643,157.541Zm-27.7-51.325a23.1,23.1,0,0,1,18.829,18.8,2.409,2.409,0,0,0,2.389,2.009,3.045,3.045,0,0,0,.414-0.036,2.424,2.424,0,0,0,1.994-2.8,27.937,27.937,0,0,0-22.781-22.748,2.438,2.438,0,0,0-2.8,1.973A2.4,2.4,0,0,0,728.939,106.216Zm39.023,17.277a46,46,0,0,0-37.514-37.458,2.418,2.418,0,1,0-.79,4.771,41.094,41.094,0,0,1,33.525,33.476,2.411,2.411,0,0,0,2.389,2.008,3.612,3.612,0,0,0,.414-0.035A2.377,2.377,0,0,0,767.962,123.493Z" transform="translate(-682.969 -86)"/>
</svg>
