<svg xmlns="http://www.w3.org/2000/svg" width="334" height="334" viewBox="0 0 334 334">
  <defs>
    <style>
      .cls-1 {
       
        fill-rule: evenodd;
      }
    </style>
  </defs>
  <path id="Forma_1" data-name="Forma 1" class="cls-1" d="M1009.53,414.984L866.063,470.227a6.959,6.959,0,0,0-4.458,6.493V648.051c0.278,7.123,7.446,7.63,9.459,6.493L1014.54,599.3a6.958,6.958,0,0,0,4.45-6.493V421.477A6.954,6.954,0,0,0,1009.53,414.984Zm-4.45,173.047L875.52,637.915V481.5l129.56-49.885V588.031Zm-167.146-117.8L694.458,414.984A6.934,6.934,0,0,0,685,421.477V592.809a6.96,6.96,0,0,0,4.458,6.493l143.476,55.243c1.892,0.868,8.816,1.265,9.459-6.493V476.72A6.961,6.961,0,0,0,837.934,470.227Zm-9.459,167.688L698.916,588.031V431.613L828.475,481.5V637.915ZM1009.35,381.386L854.51,321.454a6.947,6.947,0,0,0-5.021,0L694.645,381.386a6.979,6.979,0,0,0,0,12.979L849.489,454.3a6.97,6.97,0,0,0,5.021,0l154.84-59.932C1013.25,393.109,1017.27,385.582,1009.35,381.386ZM852,440.346l-135.566-52.47L852,335.406l135.563,52.47Z" transform="translate(-685 -321)"/>
</svg>
