<svg xmlns="http://www.w3.org/2000/svg" width="101" height="101" viewBox="0 0 101 101">
  <defs>
    <style>
      .cls-1 {
        fill-rule: evenodd;
      }
    </style>
  </defs>
  <path id="Forma_1" data-name="Forma 1" class="cls-1" d="M403.517,1346.52a3.512,3.512,0,0,0,3.517-3.51v-15l22.656,22.65a3.519,3.519,0,1,0,4.974-4.98l-22.656-22.65h15a3.515,3.515,0,1,0,0-7.03H403.517a3.514,3.514,0,0,0-3.517,3.52v23.49A3.512,3.512,0,0,0,403.517,1346.52Zm93.965,39.95a3.522,3.522,0,0,0-3.518,3.52v15l-23.352-23.36a3.52,3.52,0,1,0-4.975,4.98l23.352,23.35h-15a3.52,3.52,0,0,0,0,7.04h23.492a3.521,3.521,0,0,0,3.517-3.52v-23.49A3.523,3.523,0,0,0,497.482,1386.47Zm-67.1-4.84-23.35,23.36v-15a3.518,3.518,0,1,0-7.036,0v23.49a3.522,3.522,0,0,0,3.518,3.52h23.489a3.52,3.52,0,0,0,0-7.04h-15l23.351-23.35A3.52,3.52,0,1,0,430.387,1381.63Zm67.1-65.63H473.991a3.515,3.515,0,1,0,0,7.03h15l-22.652,22.66a3.516,3.516,0,0,0,4.975,4.97l22.651-22.65v15a3.518,3.518,0,0,0,7.036,0v-23.49A3.516,3.516,0,0,0,497.482,1316Z" transform="translate(-400 -1316)"/>
</svg>
