<svg xmlns="http://www.w3.org/2000/svg" width="280" height="280" viewBox="0 0 280 280">
  <defs>
    <style>
      .cls-1 {
        fill-rule: evenodd;
      }
    </style>
  </defs>
  <path class="cls-1" d="M1059.08,952.046c-3.87,24.168-19.61,46.134-41.63,55.714a48.583,48.583,0,0,1-13.63,3.75c-4.281,25.23-25.827,44.48-51.682,44.48H839.02c-28.924,0-52.458-24.09-52.458-53.7,0,0-1.047-22.61,13.056-37.048,12.739-13.039,65.834-63.372,65.834-63.372V883.423h11.656v15.06h36.943v-15.06h11.656V901.87L991.972,965.7a54.442,54.442,0,0,1,12.6,33.642,37.966,37.966,0,0,0,8.32-2.563c18.32-7.974,31.92-26.178,34.65-46.368,2.38-17.66-2.8-35.227-13.71-47.754,0,0-3.85,15.531-19.9,14.147-1.75-.16-42.521-13.5-42.521-13.5-9.4-3.049-14.512-13.713-11.4-23.775,2.68-8.65.067-18.635-7.36-28.117-7.979-10.168-20.347-18.362-34.837-23.066a79.4,79.4,0,0,0-24.457-4c-19.659,0-34.906,8.221-38.85,20.951-2.5,8.093-9.534,13.53-17.49,13.53H837.01c-2.994.9-44.689-13.641-44.689-13.641-9.4-3.05-14.514-13.714-11.4-23.775l5.305-17.116c5.572-17.99,28.811-28.309,63.762-28.309a240.243,240.243,0,0,1,79.738,13.865c129.645,46.259,109.175,96.435,108.075,99.981C1037.8,889.835,1065.27,913.411,1059.08,952.046ZM983.322,973.71l-65.754-63.293H873.59L807.836,973.71a43.587,43.587,0,0,0-9.618,28.58c0,23.03,18.3,41.77,40.8,41.77H952.138c22.5,0,40.8-18.74,40.8-41.77C992.941,1002.29,993.767,986,983.322,973.71ZM926.208,801.23c-26.83-8.709-53.187-13.312-76.221-13.312-29.095,0-48.776,7.471-52.652,19.984l-5.305,17.119c-1.172,3.793.535,7.734,3.807,8.794,0,0,40.611,13.082,41.179,13.082a7.023,7.023,0,0,0,6.38-5.206c5.509-17.786,25.123-29.281,49.96-29.281a90.505,90.505,0,0,1,27.974,4.566c16.659,5.4,31.013,14.983,40.41,26.972,9.948,12.688,13.278,26.606,9.379,39.188-1.172,3.788.535,7.732,3.808,8.8l39.5,12.821c3.27,1.065,6.91-1.262,8.05-4.943l5.31-17.124C1034.24,861.84,994.114,823.26,926.208,801.23Zm-30.626,224.91c-21.6,0-39.17-17.99-39.17-40.1s17.571-40.093,39.17-40.093,39.163,17.987,39.163,40.093S917.176,1026.14,895.582,1026.14Zm0-68.261c-15.167,0-27.513,12.633-27.513,28.165s12.345,28.166,27.513,28.166,27.508-12.64,27.508-28.166S910.749,957.879,895.582,957.879Z" transform="translate(-780 -776)"/>
</svg>
