<svg xmlns="http://www.w3.org/2000/svg" width="265" height="265" viewBox="0 0 265 265">
  <defs>
    <style>
      .cls-1 {
        fill-rule: evenodd;
      }
    </style>
  </defs>
  <path class="cls-1" d="M929.5,5027A132.5,132.5,0,1,1,1062,4894.5,132.5,132.5,0,0,1,929.5,5027Zm0-240.16A107.66,107.66,0,1,0,1037.16,4894.5,107.658,107.658,0,0,0,929.5,4786.84Zm53.829,120.08H941.922v41.41a12.422,12.422,0,0,1-24.844,0v-41.41H875.671a12.42,12.42,0,1,1,0-24.84h41.407v-41.41a12.422,12.422,0,0,1,24.844,0v41.41h41.406A12.42,12.42,0,1,1,983.328,4906.92Z" transform="translate(-797 -4762)"/>
</svg>
