<svg xmlns="http://www.w3.org/2000/svg" width="251" height="257" viewBox="0 0 251 257">
  <defs>
    <style>
      .cls-1 {
        fill-rule: evenodd;
      }
    </style>
  </defs>
  <path id="Forma_1" data-name="Forma 1" class="cls-1" d="M1320.6,569.288h-8.81V551.864h-8.81V347.135h8.81V329.711h8.81a4.356,4.356,0,1,0,0-8.711H1078.4a4.356,4.356,0,1,0,0,8.711h8.81v17.424h8.81V551.864h-8.81v17.424h-8.81a4.356,4.356,0,1,0,0,8.711h242.2A4.356,4.356,0,1,0,1320.6,569.288ZM1096.02,329.711h206.96v8.712H1096.02v-8.712Zm8.8,17.424h189.36V551.864H1104.82V347.135Zm-8.8,222.153v-8.712h206.96v8.712H1096.02Zm13.21-21.78h88.07V451.677h-88.07v95.831Zm8.8-87.119h70.46V538.8h-70.46V460.389Zm-8.8-13.067h88.07V351.491h-88.07v95.831Zm8.8-87.119h70.46V438.61h-70.46V360.2Zm83.67,187.305h88.07V451.677H1201.7v95.831Zm8.81-87.119h70.45V538.8h-70.45V460.389Zm-8.81-13.067h88.07V351.491H1201.7v95.831Zm8.81-87.119h70.45V438.61h-70.45V360.2Zm-77.97,14.344-8.81,8.712a4.321,4.321,0,0,0,0,6.159,4.438,4.438,0,0,0,6.23,0l8.8-8.712a4.321,4.321,0,0,0,0-6.159A4.425,4.425,0,0,0,1132.54,374.547Zm44.03,34.847-8.81,8.712a4.322,4.322,0,0,0,0,6.16,4.44,4.44,0,0,0,6.23,0l8.81-8.713a4.321,4.321,0,0,0,0-6.159A4.437,4.437,0,0,0,1176.57,409.394Zm-32.11-44.835a4.356,4.356,0,1,1-4.41,4.356A4.378,4.378,0,0,1,1144.46,364.559Zm-17.62,0a4.356,4.356,0,1,1-4.4,4.356A4.387,4.387,0,0,1,1126.84,364.559Zm35.23,60.983a4.356,4.356,0,1,1-4.4,4.356A4.378,4.378,0,0,1,1162.07,425.542Zm17.61,0a4.356,4.356,0,1,1-4.4,4.356A4.38,4.38,0,0,1,1179.68,425.542Zm45.33-50.995-8.81,8.712a4.321,4.321,0,0,0,0,6.159,4.438,4.438,0,0,0,6.23,0l8.81-8.712a4.321,4.321,0,0,0,0-6.159A4.437,4.437,0,0,0,1225.01,374.547Zm44.03,34.847-8.8,8.712a4.322,4.322,0,0,0,0,6.16,4.428,4.428,0,0,0,6.22,0l8.81-8.713a4.321,4.321,0,0,0,0-6.159A4.437,4.437,0,0,0,1269.04,409.394Zm-32.11-44.835a4.356,4.356,0,1,1-4.4,4.356A4.378,4.378,0,0,1,1236.93,364.559Zm-17.61,0a4.356,4.356,0,1,1-4.41,4.356A4.378,4.378,0,0,1,1219.32,364.559Zm35.22,60.983a4.356,4.356,0,1,1-4.4,4.356A4.38,4.38,0,0,1,1254.54,425.542Zm17.62,0a4.356,4.356,0,1,1-4.41,4.356A4.378,4.378,0,0,1,1272.16,425.542Zm-47.15,49.191-8.81,8.712a4.322,4.322,0,0,0,0,6.16,4.44,4.44,0,0,0,6.23,0l8.81-8.713a4.321,4.321,0,0,0,0-6.159A4.437,4.437,0,0,0,1225.01,474.733Zm44.03,34.848-8.8,8.712a4.321,4.321,0,0,0,0,6.159,4.428,4.428,0,0,0,6.22,0l8.81-8.712a4.321,4.321,0,0,0,0-6.159A4.437,4.437,0,0,0,1269.04,509.581Zm-32.11-44.835a4.356,4.356,0,1,1-4.4,4.355A4.377,4.377,0,0,1,1236.93,464.746Zm-17.61,0a4.356,4.356,0,1,1-4.41,4.355A4.377,4.377,0,0,1,1219.32,464.746Zm35.22,60.982a4.356,4.356,0,1,1-4.4,4.357A4.38,4.38,0,0,1,1254.54,525.728Zm17.62,0a4.356,4.356,0,1,1-4.41,4.357A4.378,4.378,0,0,1,1272.16,525.728Zm-139.62-50.995-8.81,8.712a4.322,4.322,0,0,0,0,6.16,4.44,4.44,0,0,0,6.23,0l8.8-8.713a4.321,4.321,0,0,0,0-6.159A4.425,4.425,0,0,0,1132.54,474.733Zm44.03,34.848-8.81,8.712a4.321,4.321,0,0,0,0,6.159,4.44,4.44,0,0,0,6.23,0l8.81-8.712a4.321,4.321,0,0,0,0-6.159A4.437,4.437,0,0,0,1176.57,509.581Zm-32.11-44.835a4.356,4.356,0,1,1-4.41,4.355A4.377,4.377,0,0,1,1144.46,464.746Zm-17.62,0a4.356,4.356,0,1,1-4.4,4.355A4.386,4.386,0,0,1,1126.84,464.746Zm35.23,60.982a4.356,4.356,0,1,1-4.4,4.357A4.378,4.378,0,0,1,1162.07,525.728Zm17.61,0a4.356,4.356,0,1,1-4.4,4.357A4.38,4.38,0,0,1,1179.68,525.728Z" transform="translate(-1074 -321)"/>
</svg>
